HIERARCHY
ROOT SpineBase
{
  OFFSET 0.000000 0.000000 0.000000
  CHANNELS 6 Xposition Yposition Zposition Zrotation Xrotation Yrotation
  JOINT SpineMid
  {
    OFFSET 0.000000 31.694546 0.000000
    CHANNELS 3 Zrotation Xrotation Yrotation
    JOINT SpineShoulder
    {
      OFFSET 0.036040 23.509823 -0.817042
      CHANNELS 3 Zrotation Xrotation Yrotation
      JOINT Neck
      {
        OFFSET 0.028023 7.776409 -0.610518
        CHANNELS 3 Zrotation Xrotation Yrotation
        JOINT Head
        {
          OFFSET -4.690506 13.296684 1.371897
          CHANNELS 3 Zrotation Xrotation Yrotation
          End Site
          {
            OFFSET 0 0 0
          }
        }
      }
      JOINT ShoulderLeft
      {
        OFFSET -16.430481 -4.710709 8.354293
        CHANNELS 3 Zrotation Xrotation Yrotation
        JOINT ElbowLeft
        {
          OFFSET -3.662365 -28.868295 2.325182
          CHANNELS 3 Zrotation Xrotation Yrotation
          JOINT WristLeft
          {
            OFFSET 0.356708 -21.650355 -2.496923
            CHANNELS 3 Zrotation Xrotation Yrotation
            JOINT HandLeft
            {
              OFFSET -0.761650 -6.800845 -0.838581
              CHANNELS 3 Zrotation Xrotation Yrotation
              JOINT HandTipLeft
              {
                OFFSET 0.649134 -7.140952 -0.783351
                CHANNELS 3 Zrotation Xrotation Yrotation
                End Site
                {
                  OFFSET 0 0 0
                }
              }
              JOINT ThumbLeft
              {
                OFFSET 3.273389 0.297014 -1.372969
                CHANNELS 3 Zrotation Xrotation Yrotation
                End Site
                {
                  OFFSET 0 0 0
                }
              }
            }
          }
        }
      }
      JOINT ShoulderRight
      {
        OFFSET 12.888448 -3.497701 -7.935630
        CHANNELS 3 Zrotation Xrotation Yrotation
        JOINT ElbowRight
        {
          OFFSET 8.149239 -23.074862 -1.875264
          CHANNELS 3 Zrotation Xrotation Yrotation
          JOINT WristRight
          {
            OFFSET -10.383552 -15.404493 -9.636042
            CHANNELS 3 Zrotation Xrotation Yrotation
            JOINT HandRight
            {
              OFFSET -7.919515 -3.184791 0.075673
              CHANNELS 3 Zrotation Xrotation Yrotation
              JOINT HandTipRight
              {
                OFFSET -6.564434 -2.470752 -4.142270
                CHANNELS 3 Zrotation Xrotation Yrotation
                End Site
                {
                  OFFSET 0 0 0
                }
              }
              JOINT ThumbRight
              {
                OFFSET 2.559020 -5.870384 2.463796
                CHANNELS 3 Zrotation Xrotation Yrotation
                End Site
                {
                  OFFSET 0 0 0
                }
              }
            }
          }
        }
      }
    }
  }
  JOINT HipLeft
  {
    OFFSET -6.434751 -0.105825 -0.570851
    CHANNELS 3 Zrotation Xrotation Yrotation
    JOINT KneeLeft
    {
      OFFSET 2.320688 -36.072773 4.494303
      CHANNELS 3 Zrotation Xrotation Yrotation
      JOINT AnkleLeft
      {
        OFFSET 9.268674 -36.282155 10.084674
        CHANNELS 3 Zrotation Xrotation Yrotation
        JOINT FootLeft
        {
          OFFSET -2.023773 -6.522064 -5.372169
          CHANNELS 3 Zrotation Xrotation Yrotation
          End Site
          {
            OFFSET 0 0 0
          }
        }
      }
    }
  }
  JOINT HipRight
  {
    OFFSET 6.881987 1.840596 -6.520758
    CHANNELS 3 Zrotation Xrotation Yrotation
    JOINT KneeRight
    {
      OFFSET 6.528473 -34.776387 -1.537986
      CHANNELS 3 Zrotation Xrotation Yrotation
      JOINT AnkleRight
      {
        OFFSET 5.878624 -36.647630 9.261531
        CHANNELS 3 Zrotation Xrotation Yrotation
        JOINT FootRight
        {
          OFFSET -1.430988 -5.524878 -6.154752
          CHANNELS 3 Zrotation Xrotation Yrotation
          End Site
          {
            OFFSET 0 0 0
          }
        }
      }
    }
  }
}
MOTION
Frames: 10
Frame Time: 0.033333
-21.307374 79.843651 334.294106 -0.000000 0.000000 24.075049 -0.000000 0.000000 -24.075049 -0.000000 0.000000 0.000000 -0.000000 0.000000 0.000000 0.000000 0.000000 0.000000 -0.000000 0.000000 0.000000 -0.000000 0.000000 0.000000 -0.000000 0.000000 0.000000 -0.000000 0.000000 0.000000 0.000000 0.000000 0.000000 0.000000 0.000000 0.000000 -0.000000 0.000000 0.000000 -0.000000 0.000000 0.000000 -0.000000 0.000000 0.000000 -0.000000 0.000000 0.000000 0.000000 0.000000 0.000000 0.000000 0.000000 0.000000 -0.000000 0.000000 -24.075049 -0.000000 0.000000 0.000000 -0.000000 0.000000 0.000000 0.000000 0.000000 0.000000 -0.000000 0.000000 -24.075049 -0.000000 0.000000 0.000000 -0.000000 0.000000 0.000000 0.000000 0.000000 0.000000
-21.420543 79.757998 334.181753 -0.073937 0.038856 24.129626 0.051592 -0.065686 -24.129572 -0.000000 0.000000 0.000000 -0.000000 0.000000 0.000000 0.000000 0.000000 0.000000 -0.000000 0.000000 0.000000 -0.000000 0.000000 0.000000 -0.000000 0.000000 0.000000 1.051025 0.551697 -0.070113 0.000000 0.000000 0.000000 0.000000 0.000000 0.000000 -0.000000 0.000000 0.000000 -4.138376 0.499594 2.210959 5.765482 -0.270452 -3.273184 1.604953 -3.641759 4.942928 0.000000 0.000000 0.000000 0.000000 0.000000 0.000000 0.051592 -0.065686 -24.129572 -0.000000 0.000000 0.000000 -0.000000 0.000000 0.000000 0.000000 0.000000 0.000000 0.051592 -0.065686 -24.129572 -0.000000 0.000000 0.000000 -1.604482 3.129514 0.986944 0.000000 0.000000 0.000000
-21.520637 79.677088 334.081489 -0.135509 0.069701 24.183007 0.095064 -0.119096 -24.182826 -0.000000 0.000000 0.000000 -0.000000 0.000000 0.000000 0.000000 0.000000 0.000000 -0.000000 0.000000 0.000000 -0.613946 1.022606 0.093047 1.678707 -1.739081 -0.108051 0.906599 1.712148 -0.109093 0.000000 0.000000 0.000000 0.000000 0.000000 0.000000 -0.000000 0.000000 0.000000 -7.115026 0.750261 3.820125 10.706682 -0.484641 -6.151364 3.385853 -7.101362 10.415326 0.000000 0.000000 0.000000 0.000000 0.000000 0.000000 0.095064 -0.119096 -24.182826 -0.000000 0.000000 0.000000 -0.000000 0.000000 0.000000 0.000000 0.000000 0.000000 0.095064 -0.119096 -24.182826 -0.000000 0.000000 0.000000 -2.778615 5.372619 1.732263 0.000000 0.000000 0.000000
-21.607659 79.600923 333.993316 -0.184763 0.092566 24.235321 0.130483 -0.160250 -24.234989 -0.000000 0.000000 0.000000 -0.535414 0.588026 0.265719 0.000000 0.000000 0.000000 -0.000000 0.000000 0.000000 -0.766569 1.412026 0.120963 2.165644 -2.695242 -0.081550 1.349225 2.605214 -0.228613 0.000000 0.000000 0.000000 0.000000 0.000000 0.000000 -0.000000 0.000000 0.000000 -9.263948 0.869540 4.992215 15.153721 -0.622587 -8.861402 5.078286 -10.071961 16.069521 0.000000 0.000000 0.000000 0.000000 0.000000 0.000000 0.130483 -0.160250 -24.234989 -0.000000 0.000000 0.000000 -0.000000 0.000000 0.000000 0.000000 0.000000 0.000000 0.130483 -0.160250 -24.234989 -0.000000 0.000000 0.000000 -3.538190 6.837270 2.215761 0.000000 0.000000 0.000000
-21.681606 79.529500 333.917232 -0.221741 0.107474 24.286653 0.157913 -0.189164 -24.286184 -0.000000 0.000000 0.000000 -0.690471 0.709018 0.326112 0.000000 0.000000 0.000000 0.053355 0.823541 -0.100630 -0.869473 0.892760 0.222429 2.445399 -3.714402 -0.010743 1.735913 3.517431 -0.384663 0.000000 0.000000 0.000000 0.000000 0.000000 0.000000 -0.000000 0.000000 0.000000 -10.799196 0.916958 5.837379 19.175699 -0.700734 -11.483910 6.342273 -12.320932 21.309396 0.000000 0.000000 0.000000 0.000000 0.000000 0.000000 0.157913 -0.189164 -24.286184 -0.000000 0.000000 0.000000 -0.181122 -0.709684 0.369987 0.000000 0.000000 0.000000 0.157913 -0.189164 -24.286184 -0.000000 0.000000 0.000000 -3.895305 7.597676 2.427714 0.000000 0.000000 0.000000
-21.742481 79.462822 333.853239 -0.246479 0.114449 24.337041 0.177412 -0.205853 -24.336476 -0.000000 0.000000 0.000000 -0.833474 0.792425 0.371986 0.000000 0.000000 0.000000 0.076788 0.936127 -0.113291 -0.837403 1.001165 0.231721 2.530011 -4.812670 0.101270 2.043851 4.458939 -0.573561 0.000000 0.000000 0.000000 0.000000 0.000000 0.000000 -0.000000 0.000000 0.000000 -11.856896 0.923303 6.427442 22.523559 -0.735473 -13.903996 6.922119 -13.747484 25.300596 0.000000 0.000000 0.000000 0.000000 0.000000 0.000000 0.177412 -0.205853 -24.336476 -0.000000 0.000000 0.000000 -0.024397 -0.855191 0.287026 0.000000 0.000000 0.000000 0.177412 -0.205853 -24.336476 -0.000000 0.000000 0.000000 -3.855690 7.690810 2.363246 0.000000 0.000000 0.000000
-21.793607 79.405484 333.823883 -0.265939 0.087882 24.439751 0.205752 -0.190035 -24.439206 -0.000000 0.000000 0.000000 -0.932171 0.889974 0.418234 0.000000 0.000000 0.000000 0.116749 1.031511 -0.122618 -0.694644 1.179139 0.223888 2.386610 -5.928772 0.231087 2.164715 5.609029 -0.715988 0.000000 0.000000 0.000000 0.000000 0.000000 0.000000 -0.000000 0.000000 0.000000 -13.348474 1.124303 7.144185 26.155443 -0.628545 -18.154556 7.522086 -14.965316 30.327246 0.000000 0.000000 0.000000 0.000000 0.000000 0.000000 0.205752 -0.190035 -24.439206 -0.000000 0.000000 0.000000 0.409688 -0.927584 -0.046672 0.000000 0.000000 0.000000 0.205752 -0.190035 -24.439206 -0.000000 0.000000 0.000000 -2.591026 4.830810 1.656595 0.000000 0.000000 0.000000
-21.833501 79.343163 333.788426 -0.274008 0.086616 24.494507 0.213437 -0.192425 -24.493941 -0.000000 0.000000 0.000000 -1.029653 0.859131 0.418029 0.000000 0.000000 0.000000 0.128132 1.043769 -0.123376 -0.494034 1.271061 0.201669 2.413227 -7.805976 0.474722 2.189460 6.409689 -1.076359 0.000000 0.000000 0.000000 0.000000 0.000000 0.000000 0.716456 -0.390894 -0.193459 -13.414771 1.155621 7.228330 24.224795 -0.659662 -15.756205 5.606088 -13.427583 23.787368 0.000000 0.000000 0.000000 0.000000 0.000000 0.000000 0.213437 -0.192425 -24.493941 -0.000000 0.000000 0.000000 0.727326 -0.978310 -0.291945 0.000000 0.000000 0.000000 0.213437 -0.192425 -24.493941 0.811967 -0.148111 0.182227 -2.251297 3.778833 0.520039 0.000000 0.000000 0.000000
-21.842888 79.291028 333.745979 -0.242842 0.084004 24.533256 0.186039 -0.177253 -24.532790 -0.000000 0.000000 0.000000 -1.167477 0.818272 0.418648 0.000000 0.000000 0.000000 0.144063 1.009181 -0.117800 -0.029249 1.236814 0.138486 1.634118 -9.072312 0.703493 3.599994 9.171707 -1.541286 0.000000 0.000000 0.000000 0.000000 0.000000 0.000000 0.744863 -0.339933 -0.178012 -13.051483 1.051868 7.016310 21.249756 -0.546367 -14.071278 5.714931 -11.736935 18.423392 0.000000 0.000000 0.000000 0.000000 0.000000 0.000000 0.186039 -0.177253 -24.532790 -0.000000 0.000000 0.000000 1.046876 -0.985502 -0.552999 0.000000 0.000000 0.000000 0.186039 -0.177253 -24.532790 0.850126 -0.120789 0.196081 -1.055638 4.513444 -1.040736 0.000000 0.000000 0.000000
-21.840893 79.249381 333.684242 -0.211737 0.105298 24.547429 0.148854 -0.183746 -24.546996 -0.000000 0.000000 0.000000 -1.246871 0.746523 0.401390 0.000000 0.000000 0.000000 0.205421 1.034726 -0.116694 0.500802 0.781245 0.062932 -0.124679 -11.665747 1.156713 3.918383 10.169761 -2.189039 0.000000 0.000000 0.000000 0.000000 0.000000 0.000000 0.769762 -0.288375 -0.162114 -12.948070 0.957279 6.945056 19.023080 -0.146958 -14.031236 5.402772 -10.493309 16.709963 0.000000 0.000000 0.000000 0.000000 0.000000 0.000000 -0.229693 -0.964026 -24.609021 0.019254 0.867034 0.058088 1.377957 -0.844544 -0.871371 0.000000 0.000000 0.000000 0.148854 -0.183746 -24.546996 0.835762 -0.066255 0.200807 -3.565429 8.862265 0.724669 0.000000 0.000000 0.000000
